<svg id="Layer_1" data-name="Layer 1" xmlns="http://www.w3.org/2000/svg" viewBox="0 0 300 300"><defs><style>.cls-1{fill:#ffe457;}.cls-2{fill:#693;}.cls-3{fill:#517528;}.cls-4{fill:#b39919;}.cls-5{fill:none;}</style></defs><path class="cls-1" d="M285.49,85.63c-1.1-2.37-2.31-4.69-3.53-7l-2.19-3.78-1.53-2.62c-1.58-2.62-3.22-5.23-5.05-7.73A149.5,149.5,0,0,0,174.35,2,135.19,135.19,0,0,0,152.55,0h-5.12a135.4,135.4,0,0,0-21.8,2A149.47,149.47,0,0,0,26.8,64.5C25,67,23.32,69.61,21.74,72.23l-1.52,2.62L18,78.63c-1.22,2.31-2.44,4.63-3.54,7a150.11,150.11,0,0,0-.18,128.31c1,2.2,2.07,4.39,3.23,6.52l2.5,4.32,2,3.47c1.4,2.32,2.86,4.63,4.44,6.82A149.74,149.74,0,0,0,125.63,298a148.62,148.62,0,0,0,48.72,0,149.72,149.72,0,0,0,99.14-62.91c1.59-2.19,3.05-4.5,4.45-6.82l2-3.47,2.5-4.32c1.15-2.13,2.19-4.32,3.22-6.52a150.11,150.11,0,0,0-.18-128.31Zm-234.28,107c-8.48,4.9-19.53.69-22.19-8.73a125.9,125.9,0,0,1,.14-68.37c2.69-9.4,13.71-13.58,22.18-8.69l51.4,29.69a15.22,15.22,0,0,1,0,26.37Zm53.44,74.5A125.65,125.65,0,0,1,59.84,237.4a15.17,15.17,0,0,1,3.53-23.58L98.58,193.5c14.4-8.31,27.05-1,27.05,10.75V253.1A15.27,15.27,0,0,1,104.65,267.17Zm-1.83-158.78L63.71,85.82a15.18,15.18,0,0,1-3.48-23.65,126,126,0,0,1,44.43-29.4,15.26,15.26,0,0,1,21,14.06V95.24A15.2,15.2,0,0,1,102.82,108.39Zm92.5-75.62a126,126,0,0,1,44.45,29.41,15.17,15.17,0,0,1-3.49,23.63L201.38,106c-14.37,8.29-27,1-27-10.74V46.87A15.28,15.28,0,0,1,195.32,32.77Zm-21,205.94V208.43c0-15.92,12.69-23.22,22.84-17.36l39.41,22.74a15.18,15.18,0,0,1,3.53,23.6,125.24,125.24,0,0,1-29.78,22.75C194.17,269.06,174.35,257.18,174.35,238.71Zm74.42-46-51.52-29.73a15.22,15.22,0,0,1,0-26.37l51.39-29.69c8.47-4.89,19.5-.71,22.19,8.69a125.78,125.78,0,0,1,.13,68.37C268.3,193.36,257.26,197.57,248.77,192.67Z"/><path class="cls-2" d="M150,26.75V273.24c0,15.18,13.77,26.9,28.67,24a150,150,0,0,0,0-294.51C163.76-.13,150,11.59,150,26.75Zm24.36,20.09A15.22,15.22,0,0,1,195.12,32.7a126.27,126.27,0,0,1,44.65,29.49c6.88,7,5,18.7-3.47,23.63L201.41,106c-14.38,8.28-27,1-27-10.78Zm65.77,190.55a126.3,126.3,0,0,1-29.78,22.78c-16.2,8.89-36-3-36-21.44V208.41c0-15.9,12.66-23.21,22.83-17.36l39.41,22.78C245.07,218.7,247,230.39,240.14,237.39Zm8.64-44.69-51.52-29.78a15.21,15.21,0,0,1,0-26.37l51.4-29.66a15.11,15.11,0,0,1,22.17,8.71A123.15,123.15,0,0,1,275.64,150,124.49,124.49,0,0,1,271,183.93,15.17,15.17,0,0,1,248.78,192.7Z"/><polygon class="cls-3" points="172.75 290.46 160.43 281.5 162.03 266.35 175.95 260.16 188.27 269.12 186.67 284.27 172.75 290.46"/><rect class="cls-3" x="159.56" y="109.51" width="8.56" height="85.23" rx="4.28"/><rect class="cls-4" x="132.02" y="109.51" width="8.56" height="85.23" rx="4.28"/><rect class="cls-5" width="300" height="300"/></svg>